<?xml version="1.0" standalone="no"?>
<!DOCTYPE svg PUBLIC "-//W3C//DTD SVG 20010904//EN"
 "http://www.w3.org/TR/2001/REC-SVG-20010904/DTD/svg10.dtd">
<svg version="1.0" xmlns="http://www.w3.org/2000/svg"
 width="2080.000000pt" height="2048.000000pt" viewBox="0 0 2080.000000 2048.000000"
 preserveAspectRatio="xMidYMid meet">

<g transform="translate(0.000000,2048.000000) scale(0.100000,-0.100000)"
fill="#000000" stroke="none">
<path d="M0 10240 l0 -10240 10400 0 10400 0 0 10240 0 10240 -10400 0 -10400
0 0 -10240z m16145 8249 c193 -15 324 -35 465 -68 82 -20 239 -70 255 -81 10
-8 81 -32 103 -36 10 -2 179 -84 282 -137 19 -11 67 -39 105 -65 39 -25 95
-62 125 -81 30 -20 61 -42 68 -48 7 -7 17 -13 21 -13 4 0 22 -16 41 -35 19
-19 38 -35 41 -35 10 0 109 -92 199 -185 232 -238 431 -534 520 -775 10 -25
26 -65 38 -90 39 -86 119 -350 136 -450 3 -19 8 -51 11 -70 3 -19 10 -60 15
-90 30 -176 31 -450 27 -6415 -3 -5473 -5 -6038 -19 -6115 -67 -353 -150 -604
-291 -875 -122 -237 -379 -561 -566 -718 -41 -34 -95 -79 -120 -100 -105 -87
-314 -216 -496 -305 -275 -135 -533 -205 -875 -237 -159 -14 -728 -15 -6235
-12 -4709 2 -6079 6 -6145 15 -374 54 -721 169 -967 319 -34 21 -88 54 -120
73 -57 34 -250 181 -328 250 -82 72 -227 226 -282 299 -32 42 -66 85 -76 96
-27 30 -207 310 -207 322 0 6 -7 13 -15 17 -8 3 -15 12 -15 20 0 8 -25 71 -55
140 -112 258 -192 567 -214 831 -5 64 -9 2596 -10 6095 -1 6286 -2 6148 39
6375 18 95 50 238 60 260 5 11 16 49 24 85 18 74 39 136 49 146 4 4 7 13 7 21
0 16 22 65 102 228 70 143 91 181 174 304 35 51 64 97 64 102 0 5 5 9 10 9 6
0 14 8 17 17 4 9 14 24 22 33 9 9 36 41 61 71 80 97 233 246 354 344 54 43 51
41 181 130 114 78 277 167 410 225 53 23 217 81 247 87 18 3 35 9 38 13 3 3
50 17 105 30 55 13 105 25 110 27 88 22 277 44 465 52 218 9 11929 10 12045 0z"/>
<path d="M4137 17084 c-1 -1 -47 -7 -101 -14 -115 -14 -255 -54 -363 -106 -84
-39 -219 -121 -250 -150 -139 -130 -213 -220 -275 -329 -57 -102 -117 -255
-140 -360 l-22 -100 -3 -2673 -3 -2673 532 3 533 3 79 37 c122 59 193 131 244
250 l27 63 6 985 c4 542 9 998 12 1015 3 16 9 52 12 80 12 93 76 315 120 420
7 17 19 46 26 65 30 78 178 320 238 390 12 14 41 47 64 74 23 27 57 63 76 80
19 17 59 55 89 84 71 69 177 148 275 206 43 25 80 46 82 46 2 0 55 25 118 55
62 30 120 55 128 55 8 0 19 4 24 9 22 20 309 86 440 101 159 18 487 5 520 -20
6 -4 33 -11 60 -15 163 -23 485 -153 630 -253 222 -155 388 -316 514 -497 19
-28 38 -52 42 -55 10 -8 85 -144 133 -243 25 -51 59 -137 76 -192 17 -55 35
-113 40 -130 13 -43 47 -220 56 -290 4 -33 6 -1376 5 -2985 -2 -3228 -7 -2966
60 -3106 36 -74 136 -174 213 -213 161 -80 340 -63 482 44 66 50 100 89 135
157 61 119 59 90 59 1043 0 482 5 923 10 989 12 143 51 339 92 461 54 162 199
431 300 556 29 36 165 184 192 208 15 14 49 45 75 69 64 59 277 200 391 259
159 82 287 124 510 169 77 16 202 18 1340 21 782 2 1258 7 1264 13 7 7 -10 30
-45 64 -414 413 -1122 1130 -1146 1161 -47 61 -89 153 -119 256 -23 84 -26
105 -20 199 6 119 22 182 73 286 84 172 243 309 425 366 62 20 94 23 218 23
139 0 148 -2 228 -33 46 -17 113 -51 150 -75 49 -32 295 -272 932 -911 476
-477 1030 -1032 1232 -1234 202 -201 372 -379 379 -394 6 -15 15 -28 20 -28
12 0 75 -137 100 -220 48 -157 23 -362 -63 -520 -38 -69 -137 -170 -1303
-1335 -1364 -1363 -1304 -1307 -1470 -1362 -118 -38 -285 -44 -387 -13 -229
69 -379 197 -471 401 -49 107 -61 167 -59 304 1 133 12 176 79 313 46 94 59
108 713 764 272 273 508 510 524 527 l30 31 -1185 0 c-1040 0 -1191 -2 -1243
-16 -164 -43 -264 -136 -317 -299 l-24 -70 -6 -970 c-4 -556 -11 -1000 -17
-1040 -52 -365 -184 -662 -420 -945 -171 -205 -368 -363 -603 -482 -493 -251
-1106 -265 -1622 -35 -401 177 -736 502 -928 898 -55 114 -105 245 -127 334
-77 309 -72 95 -72 3361 0 3269 8 2959 -78 3087 -52 78 -90 113 -175 158 -156
83 -373 61 -508 -52 -61 -50 -135 -152 -154 -211 -28 -84 -31 -208 -32 -1075
-1 -895 -3 -946 -29 -1093 -36 -203 -146 -494 -242 -644 -15 -23 -33 -53 -42
-69 -28 -51 -164 -211 -255 -300 -158 -155 -317 -266 -517 -361 -138 -65 -205
-87 -438 -144 l-105 -25 -603 -4 -602 -4 3 -2692 2 -2692 23 -85 c26 -101 94
-268 134 -328 15 -24 28 -45 28 -47 0 -9 73 -101 134 -169 52 -59 203 -186
221 -186 3 0 27 -15 53 -33 26 -18 63 -39 82 -47 19 -7 53 -21 76 -31 44 -20
169 -55 249 -70 32 -6 2243 -10 6088 -9 5273 0 6047 2 6115 15 79 15 168 40
257 72 52 19 231 121 274 158 180 148 259 249 344 438 60 135 82 205 101 329
14 88 16 718 16 6050 0 5121 -2 5970 -15 6075 -13 118 -47 258 -66 277 -5 6
-9 17 -9 27 0 30 -91 202 -150 284 -129 178 -328 327 -550 412 -74 29 -125 41
-260 63 -112 18 -277 19 -6053 17 -3266 -1 -5939 -2 -5940 -3z"/>
</g>
</svg>
